<mxfile host="app.diagrams.net" modified="2024-03-26T23:04:37.971Z" agent="Mozilla/5.0 (Windows NT 10.0; Win64; x64) AppleWebKit/537.36 (KHTML, like Gecko) Chrome/123.0.0.0 Safari/537.36" etag="XFRY4rnkvNbgj_Sr4cy6" version="24.0.2" type="github">
  <diagram id="C5RBs43oDa-KdzZeNtuy" name="Page-1">
    <mxGraphModel dx="954" dy="600" grid="1" gridSize="10" guides="1" tooltips="1" connect="1" arrows="1" fold="1" page="1" pageScale="1" pageWidth="827" pageHeight="1169" math="0" shadow="0">
      <root>
        <mxCell id="WIyWlLk6GJQsqaUBKTNV-0" />
        <mxCell id="WIyWlLk6GJQsqaUBKTNV-1" parent="WIyWlLk6GJQsqaUBKTNV-0" />
        <mxCell id="kJbfXXknzUnMRFL8Soi2-0" value="Inicio" style="strokeWidth=2;html=1;shape=mxgraph.flowchart.start_2;whiteSpace=wrap;" vertex="1" parent="WIyWlLk6GJQsqaUBKTNV-1">
          <mxGeometry x="30" y="30" width="50" height="50" as="geometry" />
        </mxCell>
        <mxCell id="kJbfXXknzUnMRFL8Soi2-1" value="a" style="strokeWidth=2;html=1;shape=mxgraph.flowchart.start_2;whiteSpace=wrap;" vertex="1" parent="WIyWlLk6GJQsqaUBKTNV-1">
          <mxGeometry x="120" y="35" width="40" height="40" as="geometry" />
        </mxCell>
        <mxCell id="kJbfXXknzUnMRFL8Soi2-2" value="b" style="strokeWidth=2;html=1;shape=mxgraph.flowchart.start_2;whiteSpace=wrap;" vertex="1" parent="WIyWlLk6GJQsqaUBKTNV-1">
          <mxGeometry x="190" y="35" width="40" height="40" as="geometry" />
        </mxCell>
        <mxCell id="kJbfXXknzUnMRFL8Soi2-3" value="c" style="strokeWidth=2;html=1;shape=mxgraph.flowchart.start_2;whiteSpace=wrap;" vertex="1" parent="WIyWlLk6GJQsqaUBKTNV-1">
          <mxGeometry x="260" y="35" width="40" height="40" as="geometry" />
        </mxCell>
        <mxCell id="kJbfXXknzUnMRFL8Soi2-4" value="d" style="strokeWidth=2;html=1;shape=mxgraph.flowchart.start_2;whiteSpace=wrap;" vertex="1" parent="WIyWlLk6GJQsqaUBKTNV-1">
          <mxGeometry x="330" y="35" width="40" height="40" as="geometry" />
        </mxCell>
        <mxCell id="kJbfXXknzUnMRFL8Soi2-5" style="edgeStyle=orthogonalEdgeStyle;rounded=0;orthogonalLoop=1;jettySize=auto;html=1;exitX=1;exitY=0.5;exitDx=0;exitDy=0;exitPerimeter=0;entryX=0;entryY=0.5;entryDx=0;entryDy=0;entryPerimeter=0;" edge="1" parent="WIyWlLk6GJQsqaUBKTNV-1" source="kJbfXXknzUnMRFL8Soi2-0" target="kJbfXXknzUnMRFL8Soi2-1">
          <mxGeometry relative="1" as="geometry" />
        </mxCell>
        <mxCell id="kJbfXXknzUnMRFL8Soi2-6" style="edgeStyle=orthogonalEdgeStyle;rounded=0;orthogonalLoop=1;jettySize=auto;html=1;exitX=1;exitY=0.5;exitDx=0;exitDy=0;exitPerimeter=0;entryX=0;entryY=0.5;entryDx=0;entryDy=0;entryPerimeter=0;" edge="1" parent="WIyWlLk6GJQsqaUBKTNV-1" source="kJbfXXknzUnMRFL8Soi2-1" target="kJbfXXknzUnMRFL8Soi2-2">
          <mxGeometry relative="1" as="geometry" />
        </mxCell>
        <mxCell id="kJbfXXknzUnMRFL8Soi2-7" style="edgeStyle=orthogonalEdgeStyle;rounded=0;orthogonalLoop=1;jettySize=auto;html=1;exitX=1;exitY=0.5;exitDx=0;exitDy=0;exitPerimeter=0;entryX=0;entryY=0.5;entryDx=0;entryDy=0;entryPerimeter=0;" edge="1" parent="WIyWlLk6GJQsqaUBKTNV-1" source="kJbfXXknzUnMRFL8Soi2-2" target="kJbfXXknzUnMRFL8Soi2-3">
          <mxGeometry relative="1" as="geometry" />
        </mxCell>
        <mxCell id="kJbfXXknzUnMRFL8Soi2-8" style="edgeStyle=orthogonalEdgeStyle;rounded=0;orthogonalLoop=1;jettySize=auto;html=1;exitX=1;exitY=0.5;exitDx=0;exitDy=0;exitPerimeter=0;entryX=0;entryY=0.5;entryDx=0;entryDy=0;entryPerimeter=0;" edge="1" parent="WIyWlLk6GJQsqaUBKTNV-1" source="kJbfXXknzUnMRFL8Soi2-3" target="kJbfXXknzUnMRFL8Soi2-4">
          <mxGeometry relative="1" as="geometry" />
        </mxCell>
        <mxCell id="kJbfXXknzUnMRFL8Soi2-9" value="e" style="strokeWidth=2;html=1;shape=mxgraph.flowchart.start_2;whiteSpace=wrap;" vertex="1" parent="WIyWlLk6GJQsqaUBKTNV-1">
          <mxGeometry x="30" y="120" width="40" height="40" as="geometry" />
        </mxCell>
        <mxCell id="kJbfXXknzUnMRFL8Soi2-10" value="f" style="strokeWidth=2;html=1;shape=mxgraph.flowchart.start_2;whiteSpace=wrap;" vertex="1" parent="WIyWlLk6GJQsqaUBKTNV-1">
          <mxGeometry x="100" y="120" width="40" height="40" as="geometry" />
        </mxCell>
        <mxCell id="kJbfXXknzUnMRFL8Soi2-11" value="g" style="strokeWidth=2;html=1;shape=mxgraph.flowchart.start_2;whiteSpace=wrap;" vertex="1" parent="WIyWlLk6GJQsqaUBKTNV-1">
          <mxGeometry x="170" y="120" width="40" height="40" as="geometry" />
        </mxCell>
        <mxCell id="kJbfXXknzUnMRFL8Soi2-12" value="h" style="strokeWidth=2;html=1;shape=mxgraph.flowchart.start_2;whiteSpace=wrap;" vertex="1" parent="WIyWlLk6GJQsqaUBKTNV-1">
          <mxGeometry x="240" y="120" width="40" height="40" as="geometry" />
        </mxCell>
        <mxCell id="kJbfXXknzUnMRFL8Soi2-13" value="i" style="strokeWidth=2;html=1;shape=mxgraph.flowchart.start_2;whiteSpace=wrap;" vertex="1" parent="WIyWlLk6GJQsqaUBKTNV-1">
          <mxGeometry x="310" y="120" width="40" height="40" as="geometry" />
        </mxCell>
        <mxCell id="kJbfXXknzUnMRFL8Soi2-14" style="edgeStyle=orthogonalEdgeStyle;rounded=0;orthogonalLoop=1;jettySize=auto;html=1;exitX=0.5;exitY=1;exitDx=0;exitDy=0;exitPerimeter=0;entryX=0.5;entryY=0;entryDx=0;entryDy=0;entryPerimeter=0;" edge="1" parent="WIyWlLk6GJQsqaUBKTNV-1" source="kJbfXXknzUnMRFL8Soi2-4" target="kJbfXXknzUnMRFL8Soi2-9">
          <mxGeometry relative="1" as="geometry" />
        </mxCell>
        <mxCell id="kJbfXXknzUnMRFL8Soi2-15" style="edgeStyle=orthogonalEdgeStyle;rounded=0;orthogonalLoop=1;jettySize=auto;html=1;exitX=0.5;exitY=1;exitDx=0;exitDy=0;exitPerimeter=0;entryX=0.5;entryY=0;entryDx=0;entryDy=0;entryPerimeter=0;" edge="1" parent="WIyWlLk6GJQsqaUBKTNV-1" source="kJbfXXknzUnMRFL8Soi2-4" target="kJbfXXknzUnMRFL8Soi2-10">
          <mxGeometry relative="1" as="geometry" />
        </mxCell>
        <mxCell id="kJbfXXknzUnMRFL8Soi2-16" style="edgeStyle=orthogonalEdgeStyle;rounded=0;orthogonalLoop=1;jettySize=auto;html=1;exitX=0.5;exitY=1;exitDx=0;exitDy=0;exitPerimeter=0;entryX=0.5;entryY=0;entryDx=0;entryDy=0;entryPerimeter=0;" edge="1" parent="WIyWlLk6GJQsqaUBKTNV-1" source="kJbfXXknzUnMRFL8Soi2-4" target="kJbfXXknzUnMRFL8Soi2-11">
          <mxGeometry relative="1" as="geometry" />
        </mxCell>
        <mxCell id="kJbfXXknzUnMRFL8Soi2-17" style="edgeStyle=orthogonalEdgeStyle;rounded=0;orthogonalLoop=1;jettySize=auto;html=1;exitX=0.5;exitY=1;exitDx=0;exitDy=0;exitPerimeter=0;entryX=0.5;entryY=0;entryDx=0;entryDy=0;entryPerimeter=0;" edge="1" parent="WIyWlLk6GJQsqaUBKTNV-1" source="kJbfXXknzUnMRFL8Soi2-4" target="kJbfXXknzUnMRFL8Soi2-12">
          <mxGeometry relative="1" as="geometry" />
        </mxCell>
        <mxCell id="kJbfXXknzUnMRFL8Soi2-18" style="edgeStyle=orthogonalEdgeStyle;rounded=0;orthogonalLoop=1;jettySize=auto;html=1;exitX=0.5;exitY=1;exitDx=0;exitDy=0;exitPerimeter=0;entryX=0.5;entryY=0;entryDx=0;entryDy=0;entryPerimeter=0;" edge="1" parent="WIyWlLk6GJQsqaUBKTNV-1" source="kJbfXXknzUnMRFL8Soi2-4" target="kJbfXXknzUnMRFL8Soi2-13">
          <mxGeometry relative="1" as="geometry" />
        </mxCell>
        <mxCell id="kJbfXXknzUnMRFL8Soi2-19" value="fa" style="strokeWidth=2;html=1;shape=mxgraph.flowchart.start_2;whiteSpace=wrap;" vertex="1" parent="WIyWlLk6GJQsqaUBKTNV-1">
          <mxGeometry x="30" y="200" width="40" height="40" as="geometry" />
        </mxCell>
        <mxCell id="kJbfXXknzUnMRFL8Soi2-20" value="fb" style="strokeWidth=2;html=1;shape=mxgraph.flowchart.start_2;whiteSpace=wrap;" vertex="1" parent="WIyWlLk6GJQsqaUBKTNV-1">
          <mxGeometry x="100" y="200" width="40" height="40" as="geometry" />
        </mxCell>
        <mxCell id="kJbfXXknzUnMRFL8Soi2-21" value="Datos generales" style="text;html=1;align=center;verticalAlign=middle;resizable=0;points=[];autosize=1;strokeColor=none;fillColor=none;" vertex="1" parent="WIyWlLk6GJQsqaUBKTNV-1">
          <mxGeometry x="560" y="40" width="110" height="30" as="geometry" />
        </mxCell>
        <mxCell id="kJbfXXknzUnMRFL8Soi2-22" value="Opciones de solicitud" style="text;html=1;align=center;verticalAlign=middle;resizable=0;points=[];autosize=1;strokeColor=none;fillColor=none;" vertex="1" parent="WIyWlLk6GJQsqaUBKTNV-1">
          <mxGeometry x="560" y="125" width="140" height="30" as="geometry" />
        </mxCell>
        <mxCell id="kJbfXXknzUnMRFL8Soi2-23" value="Opciones cliente" style="text;html=1;align=center;verticalAlign=middle;resizable=0;points=[];autosize=1;strokeColor=none;fillColor=none;" vertex="1" parent="WIyWlLk6GJQsqaUBKTNV-1">
          <mxGeometry x="560" y="205" width="110" height="30" as="geometry" />
        </mxCell>
        <mxCell id="kJbfXXknzUnMRFL8Soi2-24" style="edgeStyle=orthogonalEdgeStyle;rounded=0;orthogonalLoop=1;jettySize=auto;html=1;exitX=0.5;exitY=1;exitDx=0;exitDy=0;exitPerimeter=0;entryX=0.5;entryY=0;entryDx=0;entryDy=0;entryPerimeter=0;" edge="1" parent="WIyWlLk6GJQsqaUBKTNV-1" source="kJbfXXknzUnMRFL8Soi2-10" target="kJbfXXknzUnMRFL8Soi2-19">
          <mxGeometry relative="1" as="geometry">
            <Array as="points">
              <mxPoint x="120" y="180" />
              <mxPoint x="50" y="180" />
            </Array>
          </mxGeometry>
        </mxCell>
        <mxCell id="kJbfXXknzUnMRFL8Soi2-25" style="edgeStyle=orthogonalEdgeStyle;rounded=0;orthogonalLoop=1;jettySize=auto;html=1;exitX=0.5;exitY=1;exitDx=0;exitDy=0;exitPerimeter=0;entryX=0.5;entryY=0;entryDx=0;entryDy=0;entryPerimeter=0;" edge="1" parent="WIyWlLk6GJQsqaUBKTNV-1" source="kJbfXXknzUnMRFL8Soi2-10" target="kJbfXXknzUnMRFL8Soi2-20">
          <mxGeometry relative="1" as="geometry" />
        </mxCell>
        <mxCell id="kJbfXXknzUnMRFL8Soi2-26" value="faa" style="strokeWidth=2;html=1;shape=mxgraph.flowchart.start_2;whiteSpace=wrap;" vertex="1" parent="WIyWlLk6GJQsqaUBKTNV-1">
          <mxGeometry x="30" y="280" width="40" height="40" as="geometry" />
        </mxCell>
        <mxCell id="kJbfXXknzUnMRFL8Soi2-27" value="fab" style="strokeWidth=2;html=1;shape=mxgraph.flowchart.start_2;whiteSpace=wrap;" vertex="1" parent="WIyWlLk6GJQsqaUBKTNV-1">
          <mxGeometry x="100" y="280" width="40" height="40" as="geometry" />
        </mxCell>
        <mxCell id="kJbfXXknzUnMRFL8Soi2-28" value="fac" style="strokeWidth=2;html=1;shape=mxgraph.flowchart.start_2;whiteSpace=wrap;" vertex="1" parent="WIyWlLk6GJQsqaUBKTNV-1">
          <mxGeometry x="170" y="280" width="40" height="40" as="geometry" />
        </mxCell>
        <mxCell id="kJbfXXknzUnMRFL8Soi2-29" value="fad" style="strokeWidth=2;html=1;shape=mxgraph.flowchart.start_2;whiteSpace=wrap;" vertex="1" parent="WIyWlLk6GJQsqaUBKTNV-1">
          <mxGeometry x="240" y="280" width="40" height="40" as="geometry" />
        </mxCell>
        <mxCell id="kJbfXXknzUnMRFL8Soi2-30" value="fae" style="strokeWidth=2;html=1;shape=mxgraph.flowchart.start_2;whiteSpace=wrap;" vertex="1" parent="WIyWlLk6GJQsqaUBKTNV-1">
          <mxGeometry x="310" y="280" width="40" height="40" as="geometry" />
        </mxCell>
        <mxCell id="kJbfXXknzUnMRFL8Soi2-31" value="faf" style="strokeWidth=2;html=1;shape=mxgraph.flowchart.start_2;whiteSpace=wrap;" vertex="1" parent="WIyWlLk6GJQsqaUBKTNV-1">
          <mxGeometry x="380" y="280" width="40" height="40" as="geometry" />
        </mxCell>
        <mxCell id="kJbfXXknzUnMRFL8Soi2-33" value="fafa" style="strokeWidth=2;html=1;shape=mxgraph.flowchart.start_2;whiteSpace=wrap;" vertex="1" parent="WIyWlLk6GJQsqaUBKTNV-1">
          <mxGeometry x="30" y="360" width="40" height="40" as="geometry" />
        </mxCell>
        <mxCell id="kJbfXXknzUnMRFL8Soi2-34" value="fafb" style="strokeWidth=2;html=1;shape=mxgraph.flowchart.start_2;whiteSpace=wrap;" vertex="1" parent="WIyWlLk6GJQsqaUBKTNV-1">
          <mxGeometry x="100" y="360" width="40" height="40" as="geometry" />
        </mxCell>
        <mxCell id="kJbfXXknzUnMRFL8Soi2-35" value="fafc" style="strokeWidth=2;html=1;shape=mxgraph.flowchart.start_2;whiteSpace=wrap;" vertex="1" parent="WIyWlLk6GJQsqaUBKTNV-1">
          <mxGeometry x="170" y="360" width="40" height="40" as="geometry" />
        </mxCell>
        <mxCell id="kJbfXXknzUnMRFL8Soi2-36" style="edgeStyle=orthogonalEdgeStyle;rounded=0;orthogonalLoop=1;jettySize=auto;html=1;exitX=0.5;exitY=1;exitDx=0;exitDy=0;exitPerimeter=0;entryX=0.5;entryY=0;entryDx=0;entryDy=0;entryPerimeter=0;" edge="1" parent="WIyWlLk6GJQsqaUBKTNV-1" source="kJbfXXknzUnMRFL8Soi2-19" target="kJbfXXknzUnMRFL8Soi2-26">
          <mxGeometry relative="1" as="geometry" />
        </mxCell>
        <mxCell id="kJbfXXknzUnMRFL8Soi2-37" style="edgeStyle=orthogonalEdgeStyle;rounded=0;orthogonalLoop=1;jettySize=auto;html=1;exitX=1;exitY=0.5;exitDx=0;exitDy=0;exitPerimeter=0;entryX=0;entryY=0.5;entryDx=0;entryDy=0;entryPerimeter=0;" edge="1" parent="WIyWlLk6GJQsqaUBKTNV-1" source="kJbfXXknzUnMRFL8Soi2-26" target="kJbfXXknzUnMRFL8Soi2-27">
          <mxGeometry relative="1" as="geometry" />
        </mxCell>
        <mxCell id="kJbfXXknzUnMRFL8Soi2-38" style="edgeStyle=orthogonalEdgeStyle;rounded=0;orthogonalLoop=1;jettySize=auto;html=1;exitX=1;exitY=0.5;exitDx=0;exitDy=0;exitPerimeter=0;entryX=0;entryY=0.5;entryDx=0;entryDy=0;entryPerimeter=0;" edge="1" parent="WIyWlLk6GJQsqaUBKTNV-1" source="kJbfXXknzUnMRFL8Soi2-27" target="kJbfXXknzUnMRFL8Soi2-28">
          <mxGeometry relative="1" as="geometry" />
        </mxCell>
        <mxCell id="kJbfXXknzUnMRFL8Soi2-39" style="edgeStyle=orthogonalEdgeStyle;rounded=0;orthogonalLoop=1;jettySize=auto;html=1;exitX=1;exitY=0.5;exitDx=0;exitDy=0;exitPerimeter=0;entryX=0;entryY=0.5;entryDx=0;entryDy=0;entryPerimeter=0;" edge="1" parent="WIyWlLk6GJQsqaUBKTNV-1" source="kJbfXXknzUnMRFL8Soi2-28" target="kJbfXXknzUnMRFL8Soi2-29">
          <mxGeometry relative="1" as="geometry" />
        </mxCell>
        <mxCell id="kJbfXXknzUnMRFL8Soi2-40" style="edgeStyle=orthogonalEdgeStyle;rounded=0;orthogonalLoop=1;jettySize=auto;html=1;exitX=1;exitY=0.5;exitDx=0;exitDy=0;exitPerimeter=0;entryX=0;entryY=0.5;entryDx=0;entryDy=0;entryPerimeter=0;" edge="1" parent="WIyWlLk6GJQsqaUBKTNV-1" source="kJbfXXknzUnMRFL8Soi2-29" target="kJbfXXknzUnMRFL8Soi2-30">
          <mxGeometry relative="1" as="geometry" />
        </mxCell>
        <mxCell id="kJbfXXknzUnMRFL8Soi2-41" style="edgeStyle=orthogonalEdgeStyle;rounded=0;orthogonalLoop=1;jettySize=auto;html=1;exitX=1;exitY=0.5;exitDx=0;exitDy=0;exitPerimeter=0;entryX=0;entryY=0.5;entryDx=0;entryDy=0;entryPerimeter=0;" edge="1" parent="WIyWlLk6GJQsqaUBKTNV-1" source="kJbfXXknzUnMRFL8Soi2-30" target="kJbfXXknzUnMRFL8Soi2-31">
          <mxGeometry relative="1" as="geometry" />
        </mxCell>
        <mxCell id="kJbfXXknzUnMRFL8Soi2-43" style="edgeStyle=orthogonalEdgeStyle;rounded=0;orthogonalLoop=1;jettySize=auto;html=1;exitX=0.5;exitY=1;exitDx=0;exitDy=0;exitPerimeter=0;entryX=0.5;entryY=0;entryDx=0;entryDy=0;entryPerimeter=0;" edge="1" parent="WIyWlLk6GJQsqaUBKTNV-1" source="kJbfXXknzUnMRFL8Soi2-31" target="kJbfXXknzUnMRFL8Soi2-33">
          <mxGeometry relative="1" as="geometry" />
        </mxCell>
        <mxCell id="kJbfXXknzUnMRFL8Soi2-44" style="edgeStyle=orthogonalEdgeStyle;rounded=0;orthogonalLoop=1;jettySize=auto;html=1;exitX=0.5;exitY=1;exitDx=0;exitDy=0;exitPerimeter=0;entryX=0.5;entryY=0;entryDx=0;entryDy=0;entryPerimeter=0;" edge="1" parent="WIyWlLk6GJQsqaUBKTNV-1" source="kJbfXXknzUnMRFL8Soi2-31" target="kJbfXXknzUnMRFL8Soi2-34">
          <mxGeometry relative="1" as="geometry" />
        </mxCell>
        <mxCell id="kJbfXXknzUnMRFL8Soi2-45" style="edgeStyle=orthogonalEdgeStyle;rounded=0;orthogonalLoop=1;jettySize=auto;html=1;exitX=0.5;exitY=1;exitDx=0;exitDy=0;exitPerimeter=0;entryX=0.5;entryY=0;entryDx=0;entryDy=0;entryPerimeter=0;" edge="1" parent="WIyWlLk6GJQsqaUBKTNV-1" source="kJbfXXknzUnMRFL8Soi2-31" target="kJbfXXknzUnMRFL8Soi2-35">
          <mxGeometry relative="1" as="geometry" />
        </mxCell>
        <mxCell id="kJbfXXknzUnMRFL8Soi2-47" value="Opciones caja" style="text;html=1;align=center;verticalAlign=middle;resizable=0;points=[];autosize=1;strokeColor=none;fillColor=none;" vertex="1" parent="WIyWlLk6GJQsqaUBKTNV-1">
          <mxGeometry x="560" y="365" width="100" height="30" as="geometry" />
        </mxCell>
        <mxCell id="kJbfXXknzUnMRFL8Soi2-49" value="fafaa" style="strokeWidth=2;html=1;shape=mxgraph.flowchart.start_2;whiteSpace=wrap;" vertex="1" parent="WIyWlLk6GJQsqaUBKTNV-1">
          <mxGeometry x="240" y="440" width="40" height="40" as="geometry" />
        </mxCell>
        <mxCell id="kJbfXXknzUnMRFL8Soi2-50" value="fafab" style="strokeWidth=2;html=1;shape=mxgraph.flowchart.start_2;whiteSpace=wrap;" vertex="1" parent="WIyWlLk6GJQsqaUBKTNV-1">
          <mxGeometry x="310" y="440" width="40" height="40" as="geometry" />
        </mxCell>
        <mxCell id="kJbfXXknzUnMRFL8Soi2-51" value="fafac" style="strokeWidth=2;html=1;shape=mxgraph.flowchart.start_2;whiteSpace=wrap;" vertex="1" parent="WIyWlLk6GJQsqaUBKTNV-1">
          <mxGeometry x="380" y="440" width="40" height="40" as="geometry" />
        </mxCell>
        <mxCell id="kJbfXXknzUnMRFL8Soi2-52" value="fafad" style="strokeWidth=2;html=1;shape=mxgraph.flowchart.start_2;whiteSpace=wrap;" vertex="1" parent="WIyWlLk6GJQsqaUBKTNV-1">
          <mxGeometry x="450" y="440" width="40" height="40" as="geometry" />
        </mxCell>
        <mxCell id="kJbfXXknzUnMRFL8Soi2-53" value="fafae" style="strokeWidth=2;html=1;shape=mxgraph.flowchart.start_2;whiteSpace=wrap;" vertex="1" parent="WIyWlLk6GJQsqaUBKTNV-1">
          <mxGeometry x="520" y="440" width="40" height="40" as="geometry" />
        </mxCell>
        <mxCell id="kJbfXXknzUnMRFL8Soi2-55" value="Datos de nuevo cliente" style="text;html=1;align=center;verticalAlign=middle;resizable=0;points=[];autosize=1;strokeColor=none;fillColor=none;" vertex="1" parent="WIyWlLk6GJQsqaUBKTNV-1">
          <mxGeometry x="560" y="285" width="150" height="30" as="geometry" />
        </mxCell>
        <mxCell id="kJbfXXknzUnMRFL8Soi2-56" style="edgeStyle=orthogonalEdgeStyle;rounded=0;orthogonalLoop=1;jettySize=auto;html=1;exitX=0.5;exitY=1;exitDx=0;exitDy=0;exitPerimeter=0;entryX=0.5;entryY=0;entryDx=0;entryDy=0;entryPerimeter=0;" edge="1" parent="WIyWlLk6GJQsqaUBKTNV-1" source="kJbfXXknzUnMRFL8Soi2-33" target="kJbfXXknzUnMRFL8Soi2-49">
          <mxGeometry relative="1" as="geometry" />
        </mxCell>
        <mxCell id="kJbfXXknzUnMRFL8Soi2-58" style="edgeStyle=orthogonalEdgeStyle;rounded=0;orthogonalLoop=1;jettySize=auto;html=1;exitX=1;exitY=0.5;exitDx=0;exitDy=0;exitPerimeter=0;entryX=0;entryY=0.5;entryDx=0;entryDy=0;entryPerimeter=0;" edge="1" parent="WIyWlLk6GJQsqaUBKTNV-1" source="kJbfXXknzUnMRFL8Soi2-49" target="kJbfXXknzUnMRFL8Soi2-50">
          <mxGeometry relative="1" as="geometry" />
        </mxCell>
        <mxCell id="kJbfXXknzUnMRFL8Soi2-59" style="edgeStyle=orthogonalEdgeStyle;rounded=0;orthogonalLoop=1;jettySize=auto;html=1;exitX=1;exitY=0.5;exitDx=0;exitDy=0;exitPerimeter=0;entryX=0;entryY=0.5;entryDx=0;entryDy=0;entryPerimeter=0;" edge="1" parent="WIyWlLk6GJQsqaUBKTNV-1" source="kJbfXXknzUnMRFL8Soi2-50" target="kJbfXXknzUnMRFL8Soi2-51">
          <mxGeometry relative="1" as="geometry" />
        </mxCell>
        <mxCell id="kJbfXXknzUnMRFL8Soi2-60" style="edgeStyle=orthogonalEdgeStyle;rounded=0;orthogonalLoop=1;jettySize=auto;html=1;exitX=1;exitY=0.5;exitDx=0;exitDy=0;exitPerimeter=0;entryX=0;entryY=0.5;entryDx=0;entryDy=0;entryPerimeter=0;" edge="1" parent="WIyWlLk6GJQsqaUBKTNV-1" source="kJbfXXknzUnMRFL8Soi2-51" target="kJbfXXknzUnMRFL8Soi2-52">
          <mxGeometry relative="1" as="geometry" />
        </mxCell>
        <mxCell id="kJbfXXknzUnMRFL8Soi2-61" style="edgeStyle=orthogonalEdgeStyle;rounded=0;orthogonalLoop=1;jettySize=auto;html=1;exitX=1;exitY=0.5;exitDx=0;exitDy=0;exitPerimeter=0;entryX=0;entryY=0.5;entryDx=0;entryDy=0;entryPerimeter=0;" edge="1" parent="WIyWlLk6GJQsqaUBKTNV-1" source="kJbfXXknzUnMRFL8Soi2-52" target="kJbfXXknzUnMRFL8Soi2-53">
          <mxGeometry relative="1" as="geometry" />
        </mxCell>
        <mxCell id="kJbfXXknzUnMRFL8Soi2-63" value="fafaea" style="strokeWidth=2;html=1;shape=mxgraph.flowchart.start_2;whiteSpace=wrap;" vertex="1" parent="WIyWlLk6GJQsqaUBKTNV-1">
          <mxGeometry x="240" y="520" width="40" height="40" as="geometry" />
        </mxCell>
        <mxCell id="kJbfXXknzUnMRFL8Soi2-64" value="fafaeb" style="strokeWidth=2;html=1;shape=mxgraph.flowchart.start_2;whiteSpace=wrap;" vertex="1" parent="WIyWlLk6GJQsqaUBKTNV-1">
          <mxGeometry x="310" y="520" width="40" height="40" as="geometry" />
        </mxCell>
        <mxCell id="kJbfXXknzUnMRFL8Soi2-65" style="edgeStyle=orthogonalEdgeStyle;rounded=0;orthogonalLoop=1;jettySize=auto;html=1;exitX=0.5;exitY=1;exitDx=0;exitDy=0;exitPerimeter=0;entryX=0.5;entryY=0;entryDx=0;entryDy=0;entryPerimeter=0;" edge="1" parent="WIyWlLk6GJQsqaUBKTNV-1" source="kJbfXXknzUnMRFL8Soi2-53" target="kJbfXXknzUnMRFL8Soi2-63">
          <mxGeometry relative="1" as="geometry" />
        </mxCell>
        <mxCell id="kJbfXXknzUnMRFL8Soi2-67" value="Datos caja refrigerada" style="text;html=1;align=center;verticalAlign=middle;resizable=0;points=[];autosize=1;strokeColor=none;fillColor=none;" vertex="1" parent="WIyWlLk6GJQsqaUBKTNV-1">
          <mxGeometry x="560" y="445" width="140" height="30" as="geometry" />
        </mxCell>
        <mxCell id="kJbfXXknzUnMRFL8Soi2-68" style="edgeStyle=orthogonalEdgeStyle;rounded=0;orthogonalLoop=1;jettySize=auto;html=1;exitX=1;exitY=0.5;exitDx=0;exitDy=0;exitPerimeter=0;entryX=0;entryY=0.5;entryDx=0;entryDy=0;entryPerimeter=0;" edge="1" parent="WIyWlLk6GJQsqaUBKTNV-1" source="kJbfXXknzUnMRFL8Soi2-63" target="kJbfXXknzUnMRFL8Soi2-64">
          <mxGeometry relative="1" as="geometry" />
        </mxCell>
        <mxCell id="kJbfXXknzUnMRFL8Soi2-69" value="Fin" style="strokeWidth=2;html=1;shape=mxgraph.flowchart.start_2;whiteSpace=wrap;" vertex="1" parent="WIyWlLk6GJQsqaUBKTNV-1">
          <mxGeometry x="380" y="515" width="50" height="50" as="geometry" />
        </mxCell>
        <mxCell id="kJbfXXknzUnMRFL8Soi2-70" style="edgeStyle=orthogonalEdgeStyle;rounded=0;orthogonalLoop=1;jettySize=auto;html=1;exitX=1;exitY=0.5;exitDx=0;exitDy=0;exitPerimeter=0;entryX=0;entryY=0.5;entryDx=0;entryDy=0;entryPerimeter=0;" edge="1" parent="WIyWlLk6GJQsqaUBKTNV-1" source="kJbfXXknzUnMRFL8Soi2-64" target="kJbfXXknzUnMRFL8Soi2-69">
          <mxGeometry relative="1" as="geometry" />
        </mxCell>
        <mxCell id="kJbfXXknzUnMRFL8Soi2-71" value="Repartos y recolleciones" style="text;html=1;align=center;verticalAlign=middle;resizable=0;points=[];autosize=1;strokeColor=none;fillColor=none;" vertex="1" parent="WIyWlLk6GJQsqaUBKTNV-1">
          <mxGeometry x="560" y="525" width="150" height="30" as="geometry" />
        </mxCell>
      </root>
    </mxGraphModel>
  </diagram>
</mxfile>
